<?xml version="1.0" encoding="UTF-8" standalone="no"?>
<!-- Generator: Adobe Illustrator 19.0.0, SVG Export Plug-In . SVG Version: 6.00 Build 0)  -->

<svg
   xmlns:dc="http://purl.org/dc/elements/1.1/"
   xmlns:cc="http://creativecommons.org/ns#"
   xmlns:rdf="http://www.w3.org/1999/02/22-rdf-syntax-ns#"
   xmlns:svg="http://www.w3.org/2000/svg"
   xmlns="http://www.w3.org/2000/svg"
   xmlns:sodipodi="http://sodipodi.sourceforge.net/DTD/sodipodi-0.dtd"
   xmlns:inkscape="http://www.inkscape.org/namespaces/inkscape"
   version="1.1"
   id="Layer_1"
   x="0px"
   y="0px"
   viewBox="0 0 291.32 291.32"
   style="enable-background:new 0 0 291.32 291.32;"
   xml:space="preserve"
   sodipodi:docname="github.svg"
   inkscape:version="0.92.1 r15371"><metadata
     id="metadata41"><rdf:RDF><cc:Work
         rdf:about=""><dc:format>image/svg+xml</dc:format><dc:type
           rdf:resource="http://purl.org/dc/dcmitype/StillImage" /></cc:Work></rdf:RDF></metadata><defs
     id="defs39" /><sodipodi:namedview
     pagecolor="#ffffff"
     bordercolor="#666666"
     borderopacity="1"
     objecttolerance="10"
     gridtolerance="10"
     guidetolerance="10"
     inkscape:pageopacity="0"
     inkscape:pageshadow="2"
     inkscape:window-width="944"
     inkscape:window-height="814"
     id="namedview37"
     showgrid="false"
     inkscape:zoom="0.81010571"
     inkscape:cx="145.66"
     inkscape:cy="145.66"
     inkscape:window-x="568"
     inkscape:window-y="99"
     inkscape:window-maximized="0"
     inkscape:current-layer="g4" /><g
     id="g4"><path
       style="fill:#ffffff"
       d="M 145.66,0 C 65.219,0 0,65.219 0,145.66 c 0,80.45 65.219,145.66 145.66,145.66 80.441,0 145.66,-65.21 145.66,-145.66 C 291.319,65.219 226.1,0 145.66,0 Z m 40.802,256.625 c -0.838,-11.398 -1.775,-25.518 -1.83,-31.235 -0.364,-4.388 -0.838,-15.549 -11.434,-22.677 42.068,-3.523 62.087,-26.774 63.526,-57.499 1.202,-17.497 -5.754,-32.883 -18.107,-45.3 0.628,-13.282 -0.401,-29.023 -1.256,-35.941 -9.486,-2.731 -31.608,8.949 -37.79,13.947 -13.037,-5.062 -44.945,-6.837 -64.336,0 C 101.488,68.252 85.839,62.28 77.309,63.946 69.434,81.398 74.496,97.894 76.034,99.86 c -10.142,9.268 -24.289,20.675 -20.447,44.572 6.163,35.04 30.816,53.94 70.508,58.564 -8.466,1.73 -9.896,8.048 -10.606,10.788 -26.656,10.997 -34.275,-6.791 -37.644,-11.425 -11.188,-13.847 -21.23,-9.832 -21.849,-9.614 -0.601,0.218 -1.056,1.092 -0.992,1.511 0.564,2.986 6.655,6.018 6.955,6.263 8.257,6.154 11.316,17.27 13.2,20.438 11.844,19.473 39.374,11.398 39.638,11.562 0.018,1.702 -0.191,16.032 -0.355,27.184 C 64.245,245.992 27.311,200.2 27.311,145.66 c 0,-65.365 52.984,-118.348 118.348,-118.348 65.364,0 118.349,52.983 118.349,118.348 0,51.008 -32.318,94.332 -77.546,110.965 z"
       id="path2"
       inkscape:connector-curvature="0" /><path
       style="opacity:0.95999995;fill:#000000;fill-opacity:1;stroke-width:3.77952766;stroke-miterlimit:4;stroke-dasharray:none"
       d="M 104.06719,255.59959 C 68.936601,241.88241 43.290878,214.07931 32.583458,178.10249 28.621758,164.79121 27.227006,140.90281 29.56523,126.40825 33.565266,101.61218 45.559738,79.074505 64.363029,61.023015 74.853745,50.951743 81.137205,46.469581 93.197714,40.454449 110.57693,31.786631 125.34295,28.391357 145.66,28.391357 c 20.31706,0 35.08307,3.395274 52.46229,12.063092 12.06052,6.015132 18.34397,10.497294 28.83468,20.568566 15.43016,14.813225 25.41038,31.145943 31.88892,52.186505 3.09026,10.03634 3.34029,12.46534 3.34029,32.45048 0,19.9897 -0.24955,22.41262 -3.34324,32.46069 -5.92521,19.24454 -14.48466,33.98656 -27.98515,48.19906 -8.97894,9.45249 -21.88846,19.13885 -32.7355,24.56232 -12.20033,6.10013 -11.1506,7.33715 -12.54514,-14.78341 -1.26983,-20.14261 -2.45492,-24.61499 -8.18214,-30.87853 l -2.53959,-2.77741 h 3.65905 c 11.64383,0 32.92471,-9.24369 42.2966,-18.3722 20.91569,-20.37251 21.82712,-57.99907 1.94705,-80.38035 -2.45865,-2.76797 -2.83025,-4.927893 -3.60569,-20.957717 -0.47551,-9.829437 -1.1296,-18.300554 -1.45354,-18.824704 -1.01104,-1.63589 -7.18509,-1.048699 -14.14265,1.345055 -7.67341,2.640037 -21.5958,9.468481 -22.59219,11.080668 -0.37048,0.599446 -3.60497,0.252238 -7.18776,-0.771574 -8.70073,-2.486306 -43.39948,-2.560048 -52.18722,-0.110907 -6.10828,1.702376 -6.24139,1.678608 -12.88691,-2.300982 -8.51902,-5.10152 -18.783373,-8.953822 -26.196571,-9.831807 l -5.78132,-0.684711 -1.947134,6.556708 c -1.984231,6.681631 -2.424736,21.516409 -0.804518,27.093532 0.76006,2.616285 -0.170293,4.237459 -6.112172,10.650689 -12.513667,13.50635 -15.60361,24.42135 -11.779467,41.61014 5.791034,26.02958 23.413534,43.61519 51.508562,51.40073 4.95676,1.37359 10.37721,2.49743 12.04545,2.49743 h 3.03318 l -3.31697,3.46216 c -1.82433,1.90419 -3.31696,4.15447 -3.31696,5.00062 0,2.36622 -8.54835,5.42695 -15.47931,5.54234 -7.952323,0.13239 -13.018451,-2.77858 -20.162945,-11.5855 -6.95707,-8.57591 -12.215385,-12.34449 -18.225027,-13.06169 -9.48764,-1.13229 -9.904446,2.69961 -0.995531,9.15238 3.424843,2.48064 6.499117,6.50496 9.733615,12.74161 8.759183,16.88916 13.973028,20.22545 31.607708,20.22545 h 11.78384 l -0.43459,11.10966 c -0.23903,6.11032 -0.54241,11.76844 -0.67419,12.57361 -0.16088,0.98303 -3.15706,0.32478 -9.12062,-2.00377 z"
       id="path4518"
       inkscape:connector-curvature="0" /></g><g
     id="g6" /><g
     id="g8" /><g
     id="g10" /><g
     id="g12" /><g
     id="g14" /><g
     id="g16" /><g
     id="g18" /><g
     id="g20" /><g
     id="g22" /><g
     id="g24" /><g
     id="g26" /><g
     id="g28" /><g
     id="g30" /><g
     id="g32" /><g
     id="g34" /></svg>