<?xml version="1.0" encoding="UTF-8" standalone="no"?>
<!-- Generator: Adobe Illustrator 19.0.0, SVG Export Plug-In . SVG Version: 6.00 Build 0)  -->

<svg
   xmlns:dc="http://purl.org/dc/elements/1.1/"
   xmlns:cc="http://creativecommons.org/ns#"
   xmlns:rdf="http://www.w3.org/1999/02/22-rdf-syntax-ns#"
   xmlns:svg="http://www.w3.org/2000/svg"
   xmlns="http://www.w3.org/2000/svg"
   xmlns:sodipodi="http://sodipodi.sourceforge.net/DTD/sodipodi-0.dtd"
   xmlns:inkscape="http://www.inkscape.org/namespaces/inkscape"
   version="1.1"
   id="Layer_1"
   x="0px"
   y="0px"
   viewBox="0 0 512.005 512.005"
   style="enable-background:new 0 0 512.005 512.005;"
   xml:space="preserve"
   sodipodi:docname="map.svg"
   inkscape:version="0.92.1 r15371"><metadata
     id="metadata67"><rdf:RDF><cc:Work
         rdf:about=""><dc:format>image/svg+xml</dc:format><dc:type
           rdf:resource="http://purl.org/dc/dcmitype/StillImage" /></cc:Work></rdf:RDF></metadata><defs
     id="defs65" /><sodipodi:namedview
     pagecolor="#ffffff"
     bordercolor="#666666"
     borderopacity="1"
     objecttolerance="10"
     gridtolerance="10"
     guidetolerance="10"
     inkscape:pageopacity="0"
     inkscape:pageshadow="2"
     inkscape:window-width="1288"
     inkscape:window-height="881"
     id="namedview63"
     showgrid="false"
     inkscape:zoom="2"
     inkscape:cx="256.0025"
     inkscape:cy="256.0025"
     inkscape:window-x="225"
     inkscape:window-y="62"
     inkscape:window-maximized="0"
     inkscape:current-layer="Layer_1" /><g
     id="g10"><path
       style="fill:#F4F0D3;"
       d="M194.573,107.484c4.625,0,9.173,0.329,13.626,0.951L310.747,5.887   C293.107,2.044,274.795,0,256.003,0C203.871,0,155.39,15.597,114.94,42.359l66.069,66.067   C185.443,107.81,189.969,107.484,194.573,107.484z"
       id="path2" /><path
       style="fill:#F4F0D3;"
       d="M276.217,261.745c-27.454,50.906-81.57,102.107-81.65,101.816   c-0.102,0.21-64.184-60.349-88.248-115.272c-7.142-13.01-8.986-41.871-8.986-43.996c0.003-32.973,16.569-62.093,41.86-79.574   L82.375,67.9C31.73,114.672,0.003,181.626,0.003,256c0,107.751,66.578,199.946,160.835,237.717l173.67-173.681L276.217,261.745z"
       id="path4" /><path
       style="fill:#F4F0D3;"
       d="M363.477,349.005L205.474,507.008c16.336,3.271,33.23,4.997,50.529,4.997   c74.374,0,141.329-31.73,188.101-82.377L363.477,349.005z"
       id="path6" /><path
       style="fill:#F4F0D3;"
       d="M291.802,204.298c0,0.485-0.104,6.154-1.062,13.864l178.902,178.905   c26.749-40.429,42.344-88.883,42.36-140.983l-51.199,51.275v-61.824l-0.028-0.028l-0.111,61.647L322.583,173.399l0,0l-0.041-65.323   l-0.441-0.438l68.422-69.466c-11.354-7.026-23.292-13.195-35.735-18.405L249.883,124.673   C275.21,142.15,291.802,171.293,291.802,204.298z"
       id="path8" /></g><g
     id="g18"><path
       style="fill:#EFC75E;"
       d="M444.104,429.628c9.356-10.131,17.901-21.018,25.538-32.561L290.74,218.162   c-1.097,8.827-3.312,20.33-7.775,29.799c-1.989,4.566-4.261,9.174-6.747,13.783l58.29,58.291l-173.67,173.681   c14.289,5.726,29.211,10.202,44.637,13.29l158.003-158.003L444.104,429.628z"
       id="path12" /><path
       style="fill:#EFC75E;"
       d="M249.883,124.673L354.789,19.767c-14.085-5.897-28.812-10.561-44.043-13.88L208.198,108.435   C223.531,110.576,237.715,116.277,249.883,124.673z"
       id="path14" /><path
       style="fill:#EFC75E;"
       d="M181.01,108.426l-66.07-66.067C103.396,49.997,92.507,58.543,82.375,67.9l56.818,56.819   C151.394,116.286,165.625,110.565,181.01,108.426z"
       id="path16" /></g><polygon
     style="fill:#CCC7A5;"
     points="322.583,173.399 322.583,173.399 460.664,307.154 460.775,245.507 322.542,108.076 "
     id="polygon20" /><path
     style="fill:#DAD5B1;"
     d="M460.803,245.535v61.824l51.199-51.275c0-0.028,0.001-0.056,0.001-0.084  c0-19.065-2.102-37.637-6.055-55.513l-45.125,45.069L460.803,245.535z"
     id="path22" /><path
     style="fill:#E4DFBD;"
     d="M322.542,108.076l138.232,137.431l0.028,0.028l0.02,0.02l45.125-45.069  c-15.129-68.418-57.624-126.544-115.424-162.315L322.1,107.637L322.542,108.076z"
     id="path24" /><g
     id="g30"><path
       style="fill:#E2574C;"
       d="M249.883,124.673c-12.168-8.396-26.352-14.097-41.684-16.238c-4.453-0.622-9-0.951-13.626-0.951   c-4.604,0-9.13,0.326-13.563,0.942c-15.385,2.139-29.615,7.86-41.816,16.293c-25.291,17.481-41.857,46.601-41.86,79.574   c0,2.125,1.843,30.986,8.986,43.996c24.064,54.922,88.146,115.482,88.248,115.272c0.08,0.291,54.196-50.91,81.65-101.816   c2.486-4.61,4.758-9.217,6.747-13.783c4.463-9.47,6.678-20.972,7.775-29.799c0.958-7.71,1.062-13.379,1.062-13.864   C291.802,171.293,275.21,142.15,249.883,124.673z M194.563,256c-28.273,0-51.2-22.927-51.2-51.2c0-28.278,22.927-51.2,51.2-51.2   s51.2,22.922,51.2,51.2C245.763,233.073,222.835,256,194.563,256z"
       id="path26" /><path
       style="fill:#E2574C;"
       d="M225.283,204.805c0-16.968-13.757-30.72-30.72-30.72s-30.72,13.757-30.72,30.72   s13.757,30.72,30.72,30.72S225.283,221.773,225.283,204.805z"
       id="path28" /></g><g
     id="g32" /><g
     id="g34" /><g
     id="g36" /><g
     id="g38" /><g
     id="g40" /><g
     id="g42" /><g
     id="g44" /><g
     id="g46" /><g
     id="g48" /><g
     id="g50" /><g
     id="g52" /><g
     id="g54" /><g
     id="g56" /><g
     id="g58" /><g
     id="g60" /><path
     style="fill:#ffffff;stroke-width:0.5"
     d="m 185.66957,254.96214 c -31.109,-5.64462 -49.60833,-37.70229 -38.95577,-67.50685 3.95615,-11.06881 12.45075,-21.17476 22.62033,-26.91118 16.93211,-9.55101 37.29776,-8.83225 53.40448,1.88479 15.1148,10.05705 23.58161,26.90638 22.60472,44.98446 -0.37849,7.00435 -1.7838,12.74755 -4.54603,18.57867 -4.80376,10.14085 -10.91606,16.94265 -20.2948,22.58419 -10.07673,6.06141 -23.28055,8.48206 -34.83293,6.38592 z m 15.51838,-20.00485 c 5.54472,-1.17473 10.49751,-3.92414 14.85384,-8.24573 5.91125,-5.86408 8.81991,-12.11957 9.30046,-20.00194 0.83132,-13.63599 -7.67242,-26.50927 -20.48634,-31.01301 -16.3928,-5.7616 -34.27661,3.12487 -39.67939,19.71669 -1.67585,5.14652 -1.88803,12.84969 -0.4831,17.5392 2.0666,6.89807 6.36076,12.97056 11.97846,16.93904 3.22814,2.28044 8.47168,4.59189 12.00001,5.28983 3.33488,0.65967 8.80718,0.5617 12.51606,-0.22408 z"
     id="path3739"
     inkscape:connector-curvature="0" /></svg>